<?xml version="1.0" encoding="utf-8"?>
<!-- Generator: Adobe Illustrator 27.0.0, SVG Export Plug-In . SVG Version: 6.00 Build 0)  -->
<svg version="1.1" id="Layer_1" xmlns="http://www.w3.org/2000/svg" xmlns:xlink="http://www.w3.org/1999/xlink" x="0px" y="0px"
	 viewBox="0 0 50 50" enable-background="new 0 0 50 50" xml:space="preserve">
<g>
	<path fill="#FFFFFF" d="M25,0C11.214,0,0,11.214,0,25s11.214,25,25,25s25-11.214,25-25S38.782,0,25,0z M25,47.795
		C12.431,47.795,2.205,37.569,2.205,25S12.431,2.201,25,2.201S47.795,12.428,47.795,25S37.569,47.795,25,47.795z"/>
	<polygon fill="#FFFFFF" points="16.153,38.937 16.46,38.937 16.46,37.491 17.123,37.491 17.123,37.188 15.49,37.188 15.49,37.491 
		16.153,37.491 	"/>
	<rect x="17.342" y="37.188" fill="#FFFFFF" width="0.307" height="1.75"/>
	<path fill="#FFFFFF" d="M19.73,38.909c0.028-0.032,0.042-0.078,0.042-0.134v-1.602h-0.293v1.281l-1.235-1.224
		c-0.021-0.021-0.046-0.039-0.063-0.049c-0.018-0.011-0.042-0.014-0.063-0.014c-0.049,0-0.085,0.018-0.113,0.049
		c-0.028,0.032-0.042,0.078-0.042,0.134v1.587h0.293v-1.281l1.228,1.238c0.042,0.042,0.088,0.063,0.141,0.063
		C19.666,38.959,19.702,38.941,19.73,38.909z"/>
	<polygon fill="#FFFFFF" points="21.723,37.188 21.039,37.992 20.358,37.188 19.948,37.188 20.876,38.271 20.876,38.937 
		21.183,38.937 21.183,38.271 22.111,37.188 	"/>
	<path fill="#FFFFFF" d="M22.506,38.497h0.829l0.261,0.441h0.367l-1.009-1.676c-0.018-0.032-0.039-0.053-0.06-0.071
		c-0.025-0.018-0.053-0.028-0.085-0.028c-0.032,0-0.063,0.011-0.088,0.028c-0.025,0.018-0.046,0.042-0.063,0.071l-1.005,1.676h0.349
		l0.794-1.34l0.388,0.653h-0.536L22.506,38.497z"/>
	<polygon fill="#FFFFFF" points="31.053,37.188 29.491,37.188 29.491,38.937 31.057,38.937 31.057,38.631 29.794,38.631 
		29.794,37.491 31.053,37.491 	"/>
	<path fill="#FFFFFF" d="M32.884,38.789c0.049-0.046,0.088-0.102,0.113-0.166c0.025-0.063,0.039-0.138,0.039-0.219
		c0-0.102-0.025-0.187-0.078-0.254c-0.053-0.067-0.116-0.113-0.198-0.141c0.067-0.021,0.123-0.06,0.169-0.12
		c0.046-0.06,0.071-0.145,0.071-0.254c0-0.074-0.014-0.138-0.039-0.198c-0.025-0.056-0.063-0.106-0.113-0.141
		c-0.049-0.039-0.109-0.067-0.176-0.085c-0.071-0.018-0.145-0.028-0.229-0.028h-1.157v0.303h1.097c0.102,0,0.18,0.014,0.233,0.046
		s0.081,0.088,0.081,0.169c0,0.078-0.021,0.131-0.063,0.162s-0.106,0.049-0.194,0.049h-0.152v0.258h0.173
		c0.088,0,0.152,0.018,0.198,0.056c0.046,0.039,0.067,0.095,0.067,0.166c0,0.078-0.032,0.134-0.092,0.173s-0.141,0.056-0.236,0.056
		h-1.122v0.307h1.199c0.085,0,0.162-0.014,0.233-0.039C32.778,38.87,32.835,38.835,32.884,38.789z"/>
	<path fill="#FFFFFF" d="M34.662,38.867c0.106-0.046,0.194-0.109,0.268-0.187c0.074-0.081,0.134-0.173,0.176-0.282
		c0.042-0.109,0.063-0.226,0.063-0.353c0-0.127-0.021-0.243-0.063-0.349c-0.042-0.106-0.102-0.194-0.176-0.272
		c-0.074-0.074-0.166-0.134-0.268-0.176c-0.106-0.042-0.219-0.063-0.342-0.063h-1.012v1.75h1.012
		C34.443,38.937,34.556,38.913,34.662,38.867z M33.611,37.491h0.709c0.078,0,0.152,0.014,0.219,0.042
		c0.067,0.028,0.123,0.067,0.173,0.116c0.049,0.049,0.088,0.109,0.113,0.18c0.028,0.071,0.042,0.145,0.042,0.226
		s-0.014,0.159-0.042,0.229c-0.028,0.071-0.067,0.131-0.113,0.18c-0.049,0.049-0.106,0.092-0.173,0.12
		c-0.067,0.028-0.138,0.042-0.219,0.042h-0.709V37.491z"/>
	<path fill="#FFFFFF" d="M28.51,38.179h-0.73v0.268h0.653l0.441,0.487h0.434l-0.526-0.533c0.113-0.042,0.201-0.113,0.265-0.212
		s0.095-0.222,0.095-0.367c0-0.099-0.014-0.187-0.042-0.265c-0.028-0.078-0.071-0.145-0.123-0.201s-0.12-0.099-0.201-0.127
		c-0.078-0.028-0.166-0.046-0.268-0.046h-1.079h-0.3l0,0v0.307l0,0v0.67c0,0.088-0.011,0.162-0.032,0.226
		c-0.021,0.063-0.056,0.113-0.106,0.155c-0.049,0.039-0.113,0.071-0.198,0.088c-0.081,0.018-0.183,0.028-0.303,0.028
		c-0.12,0-0.222-0.011-0.303-0.028c-0.081-0.018-0.148-0.049-0.198-0.088s-0.085-0.092-0.106-0.155
		c-0.021-0.063-0.032-0.138-0.032-0.226v-0.977h-0.099h-0.215h-1.81v0.307h0.663v1.443h0.307v-1.443h0.84v0.67
		c0,0.134,0.018,0.254,0.053,0.353c0.035,0.099,0.092,0.183,0.166,0.25c0.074,0.067,0.173,0.113,0.293,0.148
		c0.12,0.032,0.265,0.049,0.43,0.049c0.169,0,0.314-0.018,0.434-0.049c0.12-0.032,0.215-0.081,0.293-0.148
		c0.074-0.067,0.131-0.148,0.166-0.25c0.035-0.099,0.053-0.219,0.053-0.353v-0.67h1.079c0.106,0,0.187,0.028,0.247,0.085
		c0.06,0.056,0.088,0.141,0.088,0.254s-0.028,0.201-0.085,0.261C28.704,38.151,28.623,38.179,28.51,38.179z"/>
	<polygon fill="#FFFFFF" points="15.934,34.951 15.966,34.951 19.589,34.951 24.82,34.951 24.82,31.297 19.596,31.297 
		19.596,19.518 19.589,19.518 19.589,17.68 24.898,17.68 24.898,14.026 7.99,14.026 7.99,17.68 15.934,17.68 	"/>
	<path fill="#FFFFFF" d="M35.399,16.876c-0.903-0.903-1.975-1.602-3.224-2.102c-0.818-0.328-1.69-0.547-2.607-0.66v3.718
		c0.388,0.085,0.765,0.198,1.125,0.349c0.797,0.335,1.489,0.801,2.074,1.397c0.586,0.596,1.041,1.309,1.369,2.145
		c0.325,0.836,0.49,1.743,0.49,2.72c0,0.977-0.162,1.891-0.49,2.734s-0.783,1.57-1.369,2.173c-0.586,0.603-1.277,1.079-2.074,1.425
		c-0.36,0.155-0.734,0.275-1.125,0.36v3.715c0.917-0.123,1.788-0.363,2.607-0.72c1.249-0.547,2.321-1.295,3.224-2.247
		c0.903-0.949,1.609-2.078,2.117-3.383s0.762-2.716,0.762-4.233c0-1.517-0.254-2.903-0.762-4.159
		C37.004,18.855,36.299,17.776,35.399,16.876z"/>
	<rect x="21.702" y="19.518" fill="#FFFFFF" width="1.75" height="9.891"/>
	<rect x="25.395" y="19.518" fill="#FFFFFF" width="1.75" height="9.891"/>
	<rect x="29.085" y="19.518" fill="#FFFFFF" width="1.75" height="9.891"/>
	<rect x="30.073" y="37.922" fill="#FFFFFF" width="0.706" height="0.272"/>
	<path fill="#FFFFFF" d="M16.442,39.848c-0.071-0.049-0.148-0.046-0.229-0.046h-0.201v0.847h0.159v-0.321h0.032
		c0.085,0,0.183,0.004,0.25-0.053c0.067-0.053,0.102-0.134,0.102-0.219C16.555,39.975,16.513,39.893,16.442,39.848z M16.322,40.169
		c-0.039,0.011-0.081,0.011-0.12,0.011h-0.028v-0.222h0.028c0.035,0,0.081-0.004,0.116,0.007c0.046,0.014,0.081,0.049,0.081,0.102
		C16.4,40.112,16.368,40.155,16.322,40.169z"/>
	<path fill="#FFFFFF" d="M16.784,40.073L16.784,40.073l-0.004-0.056h-0.138v0.635h0.152V40.31c0-0.053,0-0.099,0.042-0.134
		c0.025-0.021,0.063-0.028,0.092-0.028v-0.148h-0.011C16.858,39.996,16.816,40.017,16.784,40.073z"/>
	<path fill="#FFFFFF" d="M17.317,39.996c-0.19,0-0.339,0.155-0.339,0.342c0,0.183,0.152,0.335,0.335,0.335
		c0.134,0,0.268-0.092,0.307-0.205h-0.169c-0.028,0.032-0.085,0.056-0.141,0.056c-0.078,0-0.145-0.049-0.166-0.12h0.494
		c0.004-0.025,0.007-0.049,0.007-0.071C17.645,40.151,17.5,39.996,17.317,39.996z M17.141,40.267c0.021-0.074,0.102-0.12,0.176-0.12
		c0.078,0,0.148,0.046,0.173,0.12H17.141z"/>
	<path fill="#FFFFFF" d="M18.054,40.144c0.067,0,0.113,0.025,0.148,0.081h0.173c-0.039-0.138-0.176-0.233-0.317-0.233
		c-0.183,0-0.339,0.148-0.339,0.335c0,0.095,0.035,0.183,0.102,0.247c0.063,0.06,0.152,0.095,0.236,0.095
		c0.141,0,0.275-0.092,0.317-0.226h-0.173c-0.028,0.046-0.081,0.078-0.138,0.078c-0.113,0-0.19-0.078-0.19-0.19
		C17.871,40.225,17.945,40.144,18.054,40.144z"/>
	<rect x="18.481" y="40.013" fill="#FFFFFF" width="0.152" height="0.635"/>
	<rect x="18.481" y="39.802" fill="#FFFFFF" width="0.152" height="0.138"/>
	<path fill="#FFFFFF" d="M18.975,40.26c-0.032-0.011-0.088-0.021-0.085-0.063c0-0.035,0.025-0.053,0.06-0.053
		c0.028,0,0.053,0.018,0.06,0.046h0.148c0-0.109-0.099-0.198-0.205-0.198c-0.113,0-0.215,0.078-0.215,0.198
		c0,0.106,0.078,0.159,0.176,0.187c0.039,0.014,0.109,0.028,0.109,0.081c0,0.039-0.035,0.06-0.071,0.06
		c-0.046,0-0.071-0.032-0.081-0.071h-0.155c0.004,0.131,0.102,0.219,0.229,0.219c0.06,0,0.123-0.028,0.166-0.067
		c0.042-0.042,0.063-0.092,0.063-0.152C19.176,40.324,19.077,40.292,18.975,40.26z"/>
	<rect x="19.261" y="39.802" fill="#FFFFFF" width="0.152" height="0.138"/>
	<rect x="19.261" y="40.013" fill="#FFFFFF" width="0.152" height="0.635"/>
	<path fill="#FFFFFF" d="M19.85,39.996c-0.19,0-0.342,0.152-0.342,0.339c0,0.183,0.152,0.339,0.335,0.339
		c0.187,0,0.339-0.148,0.339-0.339C20.185,40.151,20.037,39.996,19.85,39.996z M19.843,40.521c-0.106,0-0.183-0.085-0.183-0.187
		c0-0.099,0.085-0.19,0.183-0.19c0.106,0,0.187,0.085,0.187,0.19C20.03,40.44,19.952,40.521,19.843,40.521z"/>
	<path fill="#FFFFFF" d="M20.767,40.073c-0.046-0.049-0.113-0.078-0.18-0.078c-0.067,0-0.134,0.025-0.173,0.078h-0.004v-0.06H20.27
		v0.635h0.152v-0.289c0-0.049-0.004-0.12,0.025-0.162c0.021-0.035,0.067-0.056,0.106-0.056s0.078,0.021,0.102,0.053
		c0.025,0.042,0.025,0.106,0.025,0.155v0.3h0.155V40.32c0-0.081,0-0.159-0.049-0.229C20.777,40.087,20.774,40.08,20.767,40.073z"/>
	<rect x="20.982" y="40.5" fill="#FFFFFF" width="0.152" height="0.152"/>
	<rect x="21.649" y="39.802" fill="#FFFFFF" width="0.159" height="0.847"/>
	<path fill="#FFFFFF" d="M22.453,40.073c-0.046-0.049-0.113-0.078-0.18-0.078c-0.067,0-0.134,0.025-0.173,0.078h-0.004v-0.06h-0.141
		v0.635h0.152v-0.289c0-0.049-0.004-0.12,0.025-0.162c0.021-0.035,0.067-0.056,0.106-0.056s0.078,0.021,0.102,0.053
		c0.025,0.042,0.025,0.106,0.025,0.155v0.3h0.155V40.32c0-0.081,0-0.159-0.049-0.229C22.464,40.087,22.457,40.08,22.453,40.073z"/>
	<path fill="#FFFFFF" d="M23.141,40.073c-0.046-0.049-0.113-0.078-0.18-0.078c-0.067,0-0.134,0.025-0.173,0.078h-0.004v-0.06h-0.141
		v0.635h0.152v-0.289c0-0.049-0.004-0.12,0.025-0.162c0.021-0.035,0.067-0.056,0.106-0.056s0.078,0.021,0.102,0.053
		c0.025,0.042,0.025,0.106,0.025,0.155v0.3h0.155V40.32c0-0.081,0-0.159-0.049-0.229C23.152,40.087,23.148,40.08,23.141,40.073z"/>
	<path fill="#FFFFFF" d="M23.649,39.996c-0.19,0-0.342,0.152-0.342,0.339c0,0.183,0.152,0.339,0.335,0.339
		c0.187,0,0.339-0.148,0.339-0.339C23.984,40.151,23.836,39.996,23.649,39.996z M23.642,40.521c-0.106,0-0.183-0.085-0.183-0.187
		c0-0.099,0.085-0.19,0.183-0.19c0.106,0,0.187,0.085,0.187,0.19C23.829,40.44,23.751,40.521,23.642,40.521z"/>
	<polygon fill="#FFFFFF" points="24.326,40.433 24.178,40.013 24.009,40.013 24.266,40.652 24.386,40.652 24.644,40.013 
		24.471,40.013 	"/>
	<path fill="#FFFFFF" d="M25.215,40.105c-0.049-0.071-0.127-0.113-0.212-0.113c-0.092,0-0.173,0.035-0.236,0.113
		c-0.06,0.067-0.081,0.141-0.081,0.229c0,0.088,0.028,0.169,0.078,0.233c0.056,0.067,0.134,0.106,0.233,0.106
		c0.081,0,0.169-0.042,0.215-0.106h0.004v0.085h0.141v-0.635h-0.141L25.215,40.105L25.215,40.105z M25.028,40.521
		c-0.102,0-0.187-0.078-0.187-0.183c0-0.113,0.078-0.198,0.19-0.194c0.109,0,0.183,0.081,0.183,0.187
		C25.212,40.44,25.138,40.525,25.028,40.521z"/>
	<polygon fill="#FFFFFF" points="25.649,39.802 25.494,39.802 25.494,40.013 25.42,40.013 25.42,40.151 25.494,40.151 
		25.494,40.652 25.649,40.652 25.649,40.151 25.741,40.151 25.741,40.013 25.649,40.013 	"/>
	<rect x="25.815" y="40.013" fill="#FFFFFF" width="0.152" height="0.635"/>
	<rect x="25.815" y="39.802" fill="#FFFFFF" width="0.152" height="0.138"/>
	<path fill="#FFFFFF" d="M26.408,39.996c-0.19,0-0.342,0.152-0.342,0.339c0,0.183,0.152,0.339,0.335,0.339
		c0.187,0,0.339-0.148,0.339-0.339C26.739,40.151,26.594,39.996,26.408,39.996z M26.4,40.521c-0.106,0-0.183-0.085-0.183-0.187
		c0-0.099,0.085-0.19,0.183-0.19c0.106,0,0.187,0.085,0.187,0.19C26.587,40.44,26.506,40.521,26.4,40.521z"/>
	<path fill="#FFFFFF" d="M27.325,40.073c-0.046-0.049-0.113-0.078-0.18-0.078c-0.067,0-0.134,0.025-0.173,0.078h-0.004v-0.06h-0.141
		v0.635h0.152v-0.289c0-0.049-0.004-0.12,0.025-0.162c0.021-0.035,0.067-0.056,0.106-0.056s0.078,0.021,0.102,0.053
		c0.025,0.042,0.025,0.106,0.025,0.155v0.3h0.155V40.32c0-0.081,0-0.159-0.049-0.229C27.335,40.087,27.328,40.08,27.325,40.073z"/>
	<rect x="27.536" y="40.5" fill="#FFFFFF" width="0.152" height="0.152"/>
	<path fill="#FFFFFF" d="M28.588,40.165c0.053-0.035,0.074-0.092,0.074-0.152c0-0.127-0.109-0.226-0.233-0.226
		c-0.12,0-0.222,0.102-0.222,0.222h0.152c0-0.039,0.028-0.071,0.067-0.071c0.046,0,0.081,0.028,0.081,0.074
		c0,0.074-0.06,0.088-0.12,0.088h-0.011v0.145h0.014c0.042,0,0.081,0.004,0.116,0.028c0.039,0.025,0.06,0.067,0.06,0.116
		c0,0.071-0.06,0.134-0.134,0.134c-0.071,0-0.134-0.053-0.138-0.123H28.14c0.004,0.152,0.131,0.272,0.282,0.272
		c0.162,0,0.296-0.116,0.296-0.282C28.722,40.296,28.679,40.197,28.588,40.165z"/>
	<path fill="#FFFFFF" d="M29.385,39.901c-0.102-0.085-0.229-0.099-0.356-0.099h-0.176v0.847h0.18c0.131,0,0.25-0.011,0.353-0.099
		c0.092-0.078,0.145-0.205,0.145-0.321C29.529,40.112,29.477,39.978,29.385,39.901z M29.268,40.44
		c-0.074,0.053-0.155,0.067-0.243,0.056l-0.021-0.004v-0.54h0.011c0.081,0,0.169,0.004,0.24,0.049
		c0.074,0.049,0.113,0.138,0.113,0.226C29.374,40.313,29.335,40.391,29.268,40.44z"/>
	<path fill="#FFFFFF" d="M30.686,39.996c-0.067,0-0.141,0.025-0.187,0.078c-0.007,0.007-0.011,0.014-0.018,0.021
		c-0.004-0.007-0.011-0.014-0.014-0.021c-0.039-0.053-0.106-0.078-0.169-0.078c-0.06,0-0.138,0.021-0.166,0.078h-0.004v-0.06h-0.141
		v0.635h0.152v-0.303c0-0.088,0.004-0.205,0.123-0.205c0.039,0,0.078,0.018,0.099,0.053c0.025,0.035,0.025,0.074,0.025,0.116v0.339
		h0.155v-0.303c0-0.046-0.004-0.109,0.025-0.148c0.025-0.035,0.063-0.056,0.106-0.056c0.035,0,0.074,0.018,0.095,0.046
		c0.021,0.032,0.021,0.085,0.021,0.12v0.339h0.152v-0.356c0-0.081-0.007-0.159-0.067-0.222
		C30.828,40.017,30.761,39.996,30.686,39.996z"/>
	<path fill="#FFFFFF" d="M31.385,39.996c-0.19,0-0.342,0.152-0.342,0.339c0,0.183,0.152,0.339,0.335,0.339
		c0.187,0,0.339-0.148,0.339-0.339C31.72,40.151,31.572,39.996,31.385,39.996z M31.378,40.521c-0.106,0-0.183-0.085-0.183-0.187
		c0-0.099,0.085-0.19,0.183-0.19c0.106,0,0.187,0.085,0.187,0.19C31.565,40.44,31.487,40.521,31.378,40.521z"/>
	<path fill="#FFFFFF" d="M32.295,40.08c-0.049-0.056-0.123-0.088-0.198-0.088c-0.212,0.007-0.321,0.169-0.321,0.342
		c0,0.173,0.134,0.335,0.314,0.335c0.081,0,0.166-0.035,0.212-0.106h0.004v0.085h0.141v-0.847h-0.155v0.279H32.295z M32.119,40.521
		c-0.106,0-0.187-0.088-0.187-0.194c0-0.099,0.085-0.183,0.183-0.183c0.106,0,0.19,0.081,0.19,0.187S32.221,40.521,32.119,40.521z"
		/>
	<path fill="#FFFFFF" d="M32.874,39.996c-0.19,0-0.339,0.155-0.339,0.342c0,0.183,0.152,0.335,0.335,0.335
		c0.134,0,0.268-0.092,0.307-0.205h-0.169c-0.028,0.032-0.085,0.056-0.141,0.056c-0.078,0-0.145-0.049-0.166-0.12h0.494
		c0.004-0.025,0.007-0.049,0.007-0.071C33.202,40.151,33.057,39.996,32.874,39.996z M32.697,40.267
		c0.021-0.074,0.102-0.12,0.176-0.12c0.078,0,0.148,0.046,0.173,0.12H32.697z"/>
	<rect x="33.3" y="39.802" fill="#FFFFFF" width="0.152" height="0.847"/>
	<rect x="33.576" y="40.013" fill="#FFFFFF" width="0.152" height="0.635"/>
	<rect x="33.576" y="39.802" fill="#FFFFFF" width="0.152" height="0.138"/>
	<path fill="#FFFFFF" d="M34.348,40.073c-0.046-0.049-0.113-0.078-0.18-0.078c-0.067,0-0.134,0.025-0.173,0.078h-0.004v-0.06h-0.141
		v0.635h0.152v-0.289c0-0.049-0.004-0.12,0.025-0.162c0.021-0.035,0.067-0.056,0.106-0.056s0.078,0.021,0.102,0.053
		c0.025,0.042,0.025,0.106,0.025,0.155v0.3h0.155V40.32c0-0.081,0-0.159-0.049-0.229C34.359,40.087,34.355,40.08,34.348,40.073z"/>
	<path fill="#FFFFFF" d="M35.04,40.102L35.04,40.102c-0.039-0.074-0.116-0.109-0.201-0.109c-0.095,0-0.18,0.042-0.24,0.109
		c-0.053,0.06-0.085,0.138-0.085,0.222c0,0.092,0.032,0.183,0.095,0.247c0.056,0.056,0.148,0.099,0.226,0.099
		c0.088,0,0.152-0.042,0.205-0.109l0.004,0.004c-0.011,0.056-0.014,0.099-0.06,0.141c-0.035,0.035-0.092,0.053-0.141,0.053
		c-0.049,0-0.109-0.025-0.141-0.06h-0.173c0.046,0.127,0.18,0.208,0.314,0.208c0.095,0,0.187-0.042,0.254-0.109
		c0.067-0.071,0.088-0.148,0.088-0.247v-0.54h-0.141v0.092H35.04z M34.856,40.521c-0.109,0-0.19-0.081-0.19-0.194
		c0-0.049,0.014-0.092,0.049-0.131c0.032-0.035,0.081-0.056,0.131-0.056c0.109,0,0.19,0.081,0.19,0.19
		C35.036,40.433,34.958,40.521,34.856,40.521z"/>
</g>
</svg>
