<?xml version="1.0" encoding="utf-8"?>
<!-- Generator: Adobe Illustrator 27.0.0, SVG Export Plug-In . SVG Version: 6.00 Build 0)  -->
<svg version="1.1" id="Layer_1" xmlns="http://www.w3.org/2000/svg" xmlns:xlink="http://www.w3.org/1999/xlink" x="0px" y="0px"
	 viewBox="0 0 50 50" enable-background="new 0 0 50 50" xml:space="preserve">
<g>
	<polygon fill="#FFFFFF" points="13.734,43.22 14.228,43.22 14.228,40.878 15.303,40.878 15.303,40.384 12.638,40.384 
		12.638,40.878 13.734,40.878 	"/>
	<rect x="15.668" y="40.384" fill="#FFFFFF" width="0.494" height="2.858"/>
	<path fill="#FFFFFF" d="M19.364,43.263c0.064,0,0.129-0.021,0.172-0.086c0.043-0.043,0.064-0.129,0.064-0.215v-2.6h-0.473v2.084
		l-2.02-1.998c-0.043-0.043-0.064-0.064-0.107-0.086c-0.043-0.021-0.064-0.021-0.107-0.021c-0.086,0-0.15,0.021-0.193,0.086
		c-0.043,0.064-0.064,0.129-0.064,0.215v2.578h0.473v-2.084l1.998,2.02C19.213,43.22,19.299,43.263,19.364,43.263z"/>
	<polygon fill="#FFFFFF" points="22.801,40.384 21.684,41.695 20.567,40.384 19.901,40.384 21.426,42.146 21.426,43.22 21.92,43.22 
		21.92,42.146 23.424,40.384 	"/>
	<path fill="#FFFFFF" d="M24.542,41.05l0.645,1.074h-0.881l-0.236,0.408h1.354l0.43,0.709h0.602l-1.633-2.729
		c-0.021-0.043-0.064-0.086-0.107-0.107c-0.043-0.021-0.086-0.043-0.129-0.043c-0.064,0-0.107,0.021-0.15,0.043
		s-0.064,0.064-0.107,0.107l-1.633,2.729h0.559L24.542,41.05z"/>
	<polygon fill="#FFFFFF" points="38.013,42.726 35.951,42.726 35.951,40.878 37.992,40.878 37.992,40.384 35.457,40.384 
		35.457,43.22 38.013,43.22 	"/>
	<path fill="#FFFFFF" d="M41.236,42.361c0-0.172-0.043-0.301-0.129-0.408s-0.193-0.193-0.322-0.236
		c0.107-0.043,0.193-0.107,0.279-0.193c0.086-0.086,0.107-0.236,0.107-0.408c0-0.129-0.021-0.236-0.064-0.322
		c-0.043-0.086-0.107-0.172-0.193-0.236c-0.086-0.064-0.172-0.107-0.279-0.129c-0.107-0.021-0.236-0.043-0.387-0.043h-1.891v0.494
		h1.783c0.172,0,0.301,0.021,0.387,0.086c0.086,0.043,0.129,0.15,0.129,0.279s-0.043,0.215-0.107,0.258
		c-0.064,0.043-0.172,0.086-0.322,0.086h-0.258v0.43h0.279c0.15,0,0.258,0.021,0.322,0.086c0.064,0.064,0.107,0.15,0.107,0.279
		s-0.043,0.215-0.15,0.279c-0.107,0.064-0.236,0.086-0.387,0.086h-1.826v0.494h1.955c0.129,0,0.258-0.021,0.387-0.064
		c0.107-0.043,0.215-0.107,0.301-0.172c0.086-0.064,0.15-0.172,0.193-0.279C41.215,42.618,41.236,42.49,41.236,42.361z"/>
	<path fill="#FFFFFF" d="M44.309,40.771c-0.129-0.129-0.279-0.215-0.43-0.279c-0.172-0.064-0.365-0.107-0.559-0.107h-1.654v2.858
		h1.654c0.193,0,0.387-0.043,0.559-0.107c0.172-0.064,0.322-0.172,0.43-0.301c0.129-0.129,0.215-0.279,0.279-0.451
		c0.064-0.172,0.107-0.365,0.107-0.58s-0.043-0.387-0.107-0.559C44.545,41.028,44.438,40.878,44.309,40.771z M44.137,42.167
		c-0.043,0.107-0.107,0.215-0.193,0.301c-0.086,0.086-0.172,0.15-0.279,0.193c-0.107,0.043-0.236,0.064-0.365,0.064h-1.16v-1.848
		h1.16c0.129,0,0.236,0.021,0.365,0.064c0.107,0.043,0.193,0.107,0.279,0.193c0.086,0.086,0.15,0.172,0.193,0.301
		c0.043,0.107,0.064,0.236,0.064,0.365S44.18,42.06,44.137,42.167z"/>
	<path fill="#FFFFFF" d="M34.748,42.017c0.107-0.15,0.15-0.365,0.15-0.602c0-0.15-0.021-0.301-0.064-0.43s-0.107-0.236-0.193-0.322
		c-0.086-0.086-0.193-0.15-0.322-0.215c-0.129-0.043-0.279-0.064-0.43-0.064h-1.762h-0.494l0,0v0.494l0,0v1.096
		c0,0.15-0.021,0.258-0.043,0.365c-0.043,0.107-0.086,0.193-0.172,0.258c-0.086,0.064-0.193,0.107-0.322,0.15
		s-0.301,0.043-0.494,0.043s-0.365-0.021-0.494-0.043s-0.236-0.086-0.322-0.15c-0.086-0.064-0.129-0.15-0.172-0.258
		c-0.043-0.107-0.043-0.215-0.043-0.365v-1.59h-0.172h-0.344H26.11v0.494h1.074v2.342h0.494v-2.342h1.375v1.096
		c0,0.215,0.021,0.408,0.086,0.58c0.064,0.172,0.15,0.301,0.279,0.408s0.279,0.193,0.473,0.236s0.43,0.086,0.709,0.086
		s0.516-0.021,0.709-0.086c0.193-0.043,0.344-0.129,0.473-0.236s0.215-0.236,0.279-0.408c0.064-0.172,0.086-0.365,0.086-0.58v-1.096
		h1.762c0.172,0,0.301,0.043,0.408,0.129c0.086,0.086,0.15,0.236,0.15,0.408s-0.043,0.322-0.129,0.43
		c-0.086,0.107-0.236,0.15-0.408,0.15h-1.268v0.43h1.074l0.731,0.795h0.709l-0.859-0.859C34.49,42.296,34.64,42.167,34.748,42.017z"
		/>
	<polygon fill="#FFFFFF" points="13.369,36.731 13.412,36.731 19.321,36.731 27.851,36.731 27.851,30.78 19.321,30.78 
		19.321,11.593 19.321,11.593 19.321,8.606 27.979,8.606 27.979,2.633 0.413,2.633 0.413,8.606 13.369,8.606 	"/>
	<path fill="#FFFFFF" d="M48.52,12.559c-0.838-2.041-1.977-3.803-3.438-5.286c-1.461-1.461-3.223-2.6-5.243-3.416
		c-1.332-0.537-2.75-0.881-4.254-1.074v6.059c0.645,0.129,1.246,0.322,1.826,0.58c1.289,0.537,2.428,1.311,3.373,2.278
		s1.697,2.127,2.235,3.502c0.537,1.354,0.795,2.836,0.795,4.426s-0.258,3.073-0.795,4.448c-0.537,1.375-1.268,2.557-2.235,3.545
		c-0.945,0.988-2.084,1.762-3.373,2.32c-0.58,0.258-1.203,0.451-1.826,0.58v6.059c1.504-0.193,2.922-0.58,4.254-1.182
		c2.041-0.881,3.782-2.106,5.243-3.653c1.461-1.547,2.621-3.395,3.438-5.5c0.838-2.127,1.246-4.426,1.246-6.897
		C49.766,16.857,49.358,14.601,48.52,12.559z"/>
	<rect x="22.758" y="11.593" fill="#FFFFFF" width="2.858" height="16.115"/>
	<rect x="28.774" y="11.593" fill="#FFFFFF" width="2.858" height="16.115"/>
	<rect x="34.79" y="11.593" fill="#FFFFFF" width="2.858" height="16.115"/>
	<rect x="36.402" y="41.566" fill="#FFFFFF" width="1.16" height="0.451"/>
	<path fill="#FFFFFF" d="M13.885,45.304c-0.107-0.086-0.236-0.064-0.365-0.064h-0.322v1.375h0.258v-0.516h0.043
		c0.129,0,0.301,0,0.408-0.086c0.107-0.086,0.172-0.215,0.172-0.344C14.078,45.519,14.013,45.39,13.885,45.304z M13.691,45.82
		c-0.064,0.021-0.129,0.021-0.193,0.021h-0.043v-0.365h0.043c0.064,0,0.129,0,0.193,0.021c0.086,0.021,0.129,0.086,0.129,0.172
		C13.82,45.734,13.777,45.798,13.691,45.82z"/>
	<path fill="#FFFFFF" d="M14.443,45.669L14.443,45.669v-0.086h-0.215v1.031h0.236v-0.559c0-0.086,0-0.172,0.064-0.215
		c0.043-0.021,0.107-0.043,0.15-0.043v-0.236h-0.021C14.572,45.541,14.508,45.584,14.443,45.669z"/>
	<path fill="#FFFFFF" d="M15.303,45.541c-0.301,0-0.537,0.258-0.537,0.559c0,0.301,0.236,0.537,0.537,0.537
		c0.215,0,0.43-0.15,0.494-0.322h-0.279c-0.043,0.064-0.129,0.086-0.236,0.086c-0.129,0-0.236-0.086-0.279-0.193h0.795
		c0-0.043,0.021-0.086,0.021-0.107C15.84,45.798,15.603,45.541,15.303,45.541z M15.023,45.992c0.043-0.129,0.172-0.193,0.279-0.193
		c0.129,0,0.236,0.064,0.279,0.193H15.023z"/>
	<path fill="#FFFFFF" d="M16.506,45.777c0.107,0,0.193,0.043,0.236,0.129h0.279c-0.064-0.215-0.279-0.387-0.516-0.387
		c-0.301,0-0.537,0.236-0.537,0.537c0,0.15,0.064,0.301,0.172,0.408c0.107,0.086,0.236,0.15,0.387,0.15
		c0.236,0,0.451-0.15,0.516-0.365h-0.279c-0.043,0.086-0.129,0.129-0.215,0.129c-0.172,0-0.301-0.129-0.301-0.301
		C16.205,45.927,16.312,45.777,16.506,45.777z"/>
	<rect x="17.193" y="45.584" fill="#FFFFFF" width="0.236" height="1.031"/>
	<rect x="17.193" y="45.24" fill="#FFFFFF" width="0.236" height="0.215"/>
	<path fill="#FFFFFF" d="M17.988,45.97c-0.043-0.021-0.15-0.021-0.129-0.107c0-0.064,0.043-0.086,0.086-0.086
		c0.043,0,0.086,0.021,0.086,0.064h0.236c0-0.172-0.172-0.322-0.322-0.322c-0.172,0-0.344,0.129-0.344,0.322
		c0,0.172,0.129,0.258,0.279,0.301c0.064,0.021,0.172,0.043,0.172,0.129c0,0.064-0.064,0.107-0.107,0.107
		c-0.064,0-0.107-0.043-0.129-0.107h-0.258c0,0.215,0.172,0.365,0.365,0.365c0.086,0,0.193-0.043,0.258-0.107
		c0.064-0.064,0.107-0.15,0.107-0.236C18.311,46.078,18.16,46.013,17.988,45.97z"/>
	<rect x="18.44" y="45.584" fill="#FFFFFF" width="0.236" height="1.031"/>
	<rect x="18.44" y="45.24" fill="#FFFFFF" width="0.236" height="0.215"/>
	<path fill="#FFFFFF" d="M19.406,45.541c-0.301,0-0.559,0.236-0.559,0.559c0,0.301,0.236,0.537,0.537,0.537
		c0.301,0,0.559-0.236,0.559-0.537C19.944,45.798,19.707,45.541,19.406,45.541z M19.385,46.4c-0.172,0-0.301-0.129-0.301-0.301
		c0-0.15,0.129-0.301,0.301-0.301s0.301,0.129,0.301,0.301S19.557,46.4,19.385,46.4z"/>
	<path fill="#FFFFFF" d="M20.889,45.669c-0.064-0.086-0.193-0.129-0.301-0.129c-0.107,0-0.215,0.043-0.279,0.129l0,0v-0.086h-0.236
		v1.031h0.236v-0.473c0-0.086,0-0.193,0.043-0.258c0.043-0.064,0.107-0.086,0.172-0.086s0.129,0.021,0.172,0.086
		c0.043,0.064,0.043,0.172,0.043,0.258v0.473h0.258v-0.537c0-0.129,0-0.258-0.086-0.365C20.911,45.691,20.889,45.691,20.889,45.669z
		"/>
	<rect x="21.233" y="46.357" fill="#FFFFFF" width="0.236" height="0.236"/>
	<rect x="22.307" y="45.24" fill="#FFFFFF" width="0.258" height="1.375"/>
	<path fill="#FFFFFF" d="M23.596,45.669c-0.064-0.086-0.193-0.129-0.301-0.129c-0.107,0-0.215,0.043-0.279,0.129l0,0v-0.086H22.78
		v1.031h0.236v-0.473c0-0.086,0-0.193,0.043-0.258c0.043-0.064,0.107-0.086,0.172-0.086s0.129,0.021,0.172,0.086
		c0.043,0.064,0.043,0.172,0.043,0.258v0.473h0.258v-0.537c0-0.129,0-0.258-0.086-0.365C23.618,45.691,23.618,45.691,23.596,45.669z
		"/>
	<path fill="#FFFFFF" d="M24.714,45.669c-0.064-0.086-0.193-0.129-0.301-0.129s-0.215,0.043-0.279,0.129l0,0v-0.086h-0.236v1.031
		h0.236v-0.473c0-0.086,0-0.193,0.043-0.258c0.043-0.064,0.107-0.086,0.172-0.086s0.129,0.021,0.172,0.086
		c0.043,0.064,0.043,0.172,0.043,0.258v0.473h0.258v-0.537c0-0.129,0-0.258-0.086-0.365C24.735,45.691,24.735,45.691,24.714,45.669z
		"/>
	<path fill="#FFFFFF" d="M25.551,45.541c-0.301,0-0.559,0.236-0.559,0.559c0,0.301,0.236,0.537,0.537,0.537
		c0.301,0,0.559-0.236,0.559-0.537C26.089,45.798,25.852,45.541,25.551,45.541z M25.53,46.4c-0.172,0-0.301-0.129-0.301-0.301
		c0-0.15,0.129-0.301,0.301-0.301c0.172,0,0.301,0.129,0.301,0.301S25.702,46.4,25.53,46.4z"/>
	<polygon fill="#FFFFFF" points="26.626,46.25 26.389,45.584 26.132,45.584 26.54,46.615 26.733,46.615 27.141,45.584 
		26.862,45.584 	"/>
	<path fill="#FFFFFF" d="M28.065,45.734c-0.086-0.107-0.193-0.172-0.344-0.172c-0.15,0-0.279,0.064-0.387,0.172
		c-0.086,0.107-0.129,0.236-0.129,0.365c0,0.15,0.043,0.279,0.129,0.365c0.086,0.107,0.215,0.172,0.387,0.172
		c0.129,0,0.279-0.064,0.344-0.172l0,0v0.129h0.236v-1.031h-0.236V45.734z M27.765,46.4c-0.172,0-0.301-0.129-0.301-0.301
		c0-0.172,0.129-0.322,0.301-0.322c0.172,0,0.301,0.129,0.301,0.301C28.065,46.271,27.936,46.4,27.765,46.4z"/>
	<polygon fill="#FFFFFF" points="28.774,45.24 28.517,45.24 28.517,45.584 28.409,45.584 28.409,45.798 28.517,45.798 
		28.517,46.615 28.774,46.615 28.774,45.798 28.925,45.798 28.925,45.584 28.774,45.584 	"/>
	<rect x="29.054" y="45.24" fill="#FFFFFF" width="0.236" height="0.215"/>
	<rect x="29.054" y="45.584" fill="#FFFFFF" width="0.236" height="1.031"/>
	<path fill="#FFFFFF" d="M29.999,45.541c-0.301,0-0.559,0.236-0.559,0.559c0,0.301,0.236,0.537,0.537,0.537s0.559-0.236,0.559-0.537
		C30.536,45.798,30.3,45.541,29.999,45.541z M29.978,46.4c-0.172,0-0.301-0.129-0.301-0.301c0-0.15,0.129-0.301,0.301-0.301
		c0.172,0,0.301,0.129,0.301,0.301S30.171,46.4,29.978,46.4z"/>
	<path fill="#FFFFFF" d="M31.482,45.669c-0.064-0.086-0.193-0.129-0.301-0.129c-0.107,0-0.215,0.043-0.279,0.129l0,0v-0.086h-0.236
		v1.031h0.236v-0.473c0-0.086,0-0.193,0.043-0.258c0.043-0.064,0.107-0.086,0.172-0.086s0.129,0.021,0.172,0.086
		c0.043,0.064,0.043,0.172,0.043,0.258v0.473h0.258v-0.537c0-0.129,0-0.258-0.086-0.365C31.503,45.691,31.482,45.691,31.482,45.669z
		"/>
	<rect x="31.825" y="46.357" fill="#FFFFFF" width="0.236" height="0.236"/>
	<path fill="#FFFFFF" d="M33.523,45.82c0.086-0.064,0.129-0.15,0.129-0.236c0-0.193-0.172-0.365-0.387-0.365
		c-0.193,0-0.365,0.172-0.365,0.365h0.236c0-0.064,0.043-0.107,0.107-0.107c0.064,0,0.129,0.043,0.129,0.129
		c0,0.129-0.086,0.15-0.193,0.15h-0.021v0.236h0.021c0.064,0,0.129,0,0.193,0.043s0.086,0.107,0.086,0.193
		c0,0.107-0.086,0.215-0.215,0.215c-0.107,0-0.215-0.086-0.215-0.193h-0.258c0,0.236,0.215,0.43,0.451,0.43
		c0.258,0,0.473-0.193,0.473-0.451C33.738,46.035,33.673,45.863,33.523,45.82z"/>
	<path fill="#FFFFFF" d="M34.232,45.24h-0.279v1.375h0.301c0.215,0,0.408-0.021,0.58-0.15c0.15-0.129,0.236-0.322,0.236-0.516
		c0-0.193-0.086-0.408-0.236-0.537C34.64,45.261,34.447,45.24,34.232,45.24z M34.619,46.271c-0.129,0.086-0.258,0.107-0.387,0.086
		H34.21v-0.881h0.021c0.129,0,0.279,0,0.387,0.086c0.129,0.086,0.193,0.215,0.193,0.365C34.79,46.056,34.726,46.185,34.619,46.271z"
		/>
	<path fill="#FFFFFF" d="M36.918,45.541c-0.107,0-0.236,0.043-0.301,0.129c0,0-0.021,0.021-0.021,0.043
		c0-0.021-0.021-0.021-0.021-0.043c-0.064-0.086-0.172-0.129-0.279-0.129c-0.086,0-0.215,0.043-0.258,0.129l0,0v-0.086H35.8v1.031
		h0.236v-0.494c0-0.15,0-0.322,0.193-0.322c0.064,0,0.129,0.021,0.172,0.086c0.043,0.064,0.043,0.129,0.043,0.193v0.537h0.258
		v-0.494c0-0.064,0-0.172,0.043-0.236c0.043-0.064,0.107-0.086,0.172-0.086c0.064,0,0.129,0.021,0.15,0.086
		c0.043,0.043,0.043,0.129,0.043,0.193v0.537h0.236v-0.58c0-0.129-0.021-0.258-0.107-0.365
		C37.154,45.584,37.025,45.541,36.918,45.541z"/>
	<path fill="#FFFFFF" d="M38.056,45.541c-0.301,0-0.559,0.236-0.559,0.559c0,0.301,0.236,0.537,0.537,0.537
		c0.301,0,0.559-0.236,0.559-0.537C38.594,45.798,38.357,45.541,38.056,45.541z M38.035,46.4c-0.172,0-0.301-0.129-0.301-0.301
		c0-0.15,0.129-0.301,0.301-0.301s0.301,0.129,0.301,0.301S38.207,46.4,38.035,46.4z"/>
	<path fill="#FFFFFF" d="M39.517,45.691c-0.086-0.086-0.193-0.15-0.322-0.15c-0.344,0-0.516,0.279-0.516,0.559
		s0.215,0.537,0.516,0.537c0.129,0,0.258-0.064,0.344-0.172l0,0v0.129h0.236v-1.375h-0.258L39.517,45.691L39.517,45.691z
		 M39.238,46.4c-0.172,0-0.301-0.15-0.301-0.322c0-0.15,0.129-0.301,0.301-0.301c0.172,0,0.301,0.129,0.301,0.301
		C39.539,46.25,39.389,46.4,39.238,46.4z"/>
	<path fill="#FFFFFF" d="M40.463,45.541c-0.301,0-0.537,0.258-0.537,0.559c0,0.301,0.236,0.537,0.537,0.537
		c0.215,0,0.43-0.15,0.494-0.322h-0.279c-0.043,0.064-0.129,0.086-0.236,0.086c-0.129,0-0.236-0.086-0.279-0.193h0.795
		c0-0.043,0.021-0.086,0.021-0.107C40.978,45.798,40.742,45.541,40.463,45.541z M40.162,45.992c0.043-0.129,0.172-0.193,0.279-0.193
		c0.129,0,0.236,0.064,0.279,0.193H40.162z"/>
	<rect x="41.15" y="45.24" fill="#FFFFFF" width="0.236" height="1.375"/>
	<rect x="41.58" y="45.584" fill="#FFFFFF" width="0.236" height="1.031"/>
	<rect x="41.58" y="45.24" fill="#FFFFFF" width="0.236" height="0.215"/>
	<path fill="#FFFFFF" d="M42.826,45.669c-0.064-0.086-0.193-0.129-0.301-0.129c-0.107,0-0.215,0.043-0.279,0.129l0,0v-0.086H42.01
		v1.031h0.236v-0.473c0-0.086,0-0.193,0.043-0.258c0.043-0.064,0.107-0.086,0.172-0.086c0.064,0,0.129,0.021,0.172,0.086
		c0.043,0.064,0.043,0.172,0.043,0.258v0.473h0.258v-0.537c0-0.129,0-0.258-0.086-0.365C42.848,45.691,42.848,45.691,42.826,45.669z
		"/>
	<path fill="#FFFFFF" d="M43.944,45.712L43.944,45.712c-0.064-0.129-0.193-0.172-0.322-0.172c-0.15,0-0.301,0.064-0.387,0.172
		c-0.086,0.086-0.129,0.215-0.129,0.365s0.043,0.301,0.15,0.408c0.086,0.086,0.236,0.172,0.365,0.172
		c0.15,0,0.236-0.064,0.322-0.172l0,0c-0.021,0.086-0.021,0.172-0.107,0.236c-0.064,0.064-0.15,0.086-0.236,0.086
		s-0.172-0.043-0.236-0.107h-0.279c0.086,0.215,0.301,0.344,0.516,0.344c0.15,0,0.301-0.064,0.408-0.172s0.15-0.236,0.15-0.387
		v-0.881h-0.236v0.107H43.944z M43.664,46.4c-0.172,0-0.301-0.129-0.301-0.301c0-0.086,0.021-0.15,0.086-0.215
		c0.043-0.064,0.129-0.086,0.215-0.086c0.172,0,0.301,0.129,0.301,0.301C43.944,46.25,43.815,46.4,43.664,46.4z"/>
</g>
</svg>
