<?xml version="1.0" encoding="utf-8"?>
<!-- Generator: Adobe Illustrator 27.0.0, SVG Export Plug-In . SVG Version: 6.00 Build 0)  -->
<svg version="1.1" id="Layer_1" xmlns="http://www.w3.org/2000/svg" xmlns:xlink="http://www.w3.org/1999/xlink" x="0px" y="0px"
	 viewBox="0 0 36 36" enable-background="new 0 0 36 36" xml:space="preserve">
<g id="XMLID_13_">
	<path id="XMLID_6_" fill="#FFFFFF" d="M18,1.241c-9.279,0-16.799,7.522-16.799,16.799S8.721,34.839,18,34.839
		s16.8-7.522,16.8-16.799S27.279,1.241,18,1.241z"/>
</g>
<g id="logo-circle">
	<path id="XMLID_8_" fill="#274965" d="M18,0C8.058,0,0,8.059,0,18s8.058,18,18,18s18-8.059,18-18C36.001,8.059,27.943,0,18,0z
		 M16.436,28.711l-7.76-4.479v-9.037l7.76,4.192V28.711z M17.819,17.26l-9.181-4.867l9.181-5.302l9.183,5.302L17.819,17.26z
		 M27.007,24.249l-7.731,4.464v-9.29l7.731-4.177V24.249z"/>
</g>
</svg>
