<?xml version="1.0" encoding="utf-8"?>
<!-- Generator: Adobe Illustrator 27.0.0, SVG Export Plug-In . SVG Version: 6.00 Build 0)  -->
<svg version="1.1" id="Layer_1" xmlns="http://www.w3.org/2000/svg" xmlns:xlink="http://www.w3.org/1999/xlink" x="0px" y="0px"
	 viewBox="0 0 36 36" enable-background="new 0 0 36 36" xml:space="preserve">
<g id="XMLID_13_">
	<path id="XMLID_6_" fill="#FFFFFF" d="M18,5.331c-7.015,0-12.7,5.686-12.7,12.7s5.685,12.7,12.7,12.7s12.701-5.686,12.701-12.7
		S25.015,5.331,18,5.331z"/>
</g>
<g id="logo-circle">
	<path id="XMLID_8_" fill="#274965" d="M18,4.392C10.484,4.392,4.392,10.485,4.392,18S10.484,31.608,18,31.608
		S31.608,25.515,31.608,18C31.609,10.485,25.517,4.392,18,4.392z M16.818,26.098l-5.867-3.386V15.88l5.867,3.169V26.098z
		 M17.863,17.441l-6.941-3.679l6.941-4.008l6.942,4.008L17.863,17.441z M24.809,22.724l-5.845,3.374v-7.023l5.845-3.158V22.724z"/>
</g>
</svg>
