<?xml version="1.0" encoding="utf-8"?>
<!-- Generator: Adobe Illustrator 21.1.0, SVG Export Plug-In . SVG Version: 6.00 Build 0)  -->
<svg version="1.1" id="Layer_1" xmlns="http://www.w3.org/2000/svg" xmlns:xlink="http://www.w3.org/1999/xlink" x="0px" y="0px"
	 viewBox="0 0 321.4 279.5" style="enable-background:new 0 0 321.4 279.5;" xml:space="preserve">
<style type="text/css">
	.st0{fill:#FFFFFF;}
</style>
<g>
	<polygon class="st0" points="97.9,223.4 100.2,223.4 100.2,212.5 105.2,212.5 105.2,210.2 92.8,210.2 92.8,212.5 97.9,212.5 	"/>
	<rect x="106.9" y="210.2" class="st0" width="2.3" height="13.3"/>
	<path class="st0" d="M124.1,223.6c0.3,0,0.6-0.1,0.8-0.4c0.2-0.2,0.3-0.6,0.3-1v-12.1h-2.2v9.7l-9.4-9.3c-0.2-0.2-0.3-0.3-0.5-0.4
		s-0.3-0.1-0.5-0.1c-0.4,0-0.7,0.1-0.9,0.4s-0.3,0.6-0.3,1v12h2.2v-9.7l9.3,9.4C123.4,223.4,123.8,223.6,124.1,223.6z"/>
	<polygon class="st0" points="140.1,210.2 134.9,216.3 129.7,210.2 126.6,210.2 133.7,218.4 133.7,223.4 136,223.4 136,218.4 
		143,210.2 	"/>
	<path class="st0" d="M148.2,213.3l3,5h-4.1l-1.1,1.9h6.3l2,3.3h2.8l-7.6-12.7c-0.1-0.2-0.3-0.4-0.5-0.5s-0.4-0.2-0.6-0.2
		c-0.3,0-0.5,0.1-0.7,0.2s-0.3,0.3-0.5,0.5l-7.6,12.7h2.6L148.2,213.3z"/>
	<polygon class="st0" points="210.9,221.1 201.3,221.1 201.3,212.5 210.8,212.5 210.8,210.2 199,210.2 199,223.4 210.9,223.4 	"/>
	<path class="st0" d="M225.9,219.4c0-0.8-0.2-1.4-0.6-1.9c-0.4-0.5-0.9-0.9-1.5-1.1c0.5-0.2,0.9-0.5,1.3-0.9
		c0.4-0.4,0.5-1.1,0.5-1.9c0-0.6-0.1-1.1-0.3-1.5c-0.2-0.4-0.5-0.8-0.9-1.1c-0.4-0.3-0.8-0.5-1.3-0.6c-0.5-0.1-1.1-0.2-1.8-0.2h-8.8
		v2.3h8.3c0.8,0,1.4,0.1,1.8,0.4c0.4,0.2,0.6,0.7,0.6,1.3c0,0.6-0.2,1-0.5,1.2c-0.3,0.2-0.8,0.4-1.5,0.4h-1.2v2h1.3
		c0.7,0,1.2,0.1,1.5,0.4s0.5,0.7,0.5,1.3c0,0.6-0.2,1-0.7,1.3c-0.5,0.3-1.1,0.4-1.8,0.4h-8.5v2.3h9.1c0.6,0,1.2-0.1,1.8-0.3
		c0.5-0.2,1-0.5,1.4-0.8c0.4-0.3,0.7-0.8,0.9-1.3C225.8,220.6,225.9,220,225.9,219.4z"/>
	<path class="st0" d="M240.2,212c-0.6-0.6-1.3-1-2-1.3c-0.8-0.3-1.7-0.5-2.6-0.5h-7.7v13.3h7.7c0.9,0,1.8-0.2,2.6-0.5
		c0.8-0.3,1.5-0.8,2-1.4c0.6-0.6,1-1.3,1.3-2.1s0.5-1.7,0.5-2.7c0-1-0.2-1.8-0.5-2.6C241.3,213.2,240.8,212.5,240.2,212z
		 M239.4,218.5c-0.2,0.5-0.5,1-0.9,1.4c-0.4,0.4-0.8,0.7-1.3,0.9c-0.5,0.2-1.1,0.3-1.7,0.3h-5.4v-8.6h5.4c0.6,0,1.1,0.1,1.7,0.3
		c0.5,0.2,0.9,0.5,1.3,0.9c0.4,0.4,0.7,0.8,0.9,1.4c0.2,0.5,0.3,1.1,0.3,1.7S239.6,218,239.4,218.5z"/>
	<path class="st0" d="M195.7,217.8c0.5-0.7,0.7-1.7,0.7-2.8c0-0.7-0.1-1.4-0.3-2s-0.5-1.1-0.9-1.5c-0.4-0.4-0.9-0.7-1.5-1
		c-0.6-0.2-1.3-0.3-2-0.3h-8.2h-2.3h0v2.3h0v5.1c0,0.7-0.1,1.2-0.2,1.7c-0.2,0.5-0.4,0.9-0.8,1.2c-0.4,0.3-0.9,0.5-1.5,0.7
		s-1.4,0.2-2.3,0.2s-1.7-0.1-2.3-0.2s-1.1-0.4-1.5-0.7c-0.4-0.3-0.6-0.7-0.8-1.2s-0.2-1-0.2-1.7v-7.4h-0.8h-1.6h-13.7v2.3h5v10.9
		h2.3v-10.9h6.4v5.1c0,1,0.1,1.9,0.4,2.7s0.7,1.4,1.3,1.9s1.3,0.9,2.2,1.1c0.9,0.2,2,0.4,3.3,0.4c1.3,0,2.4-0.1,3.3-0.4
		c0.9-0.2,1.6-0.6,2.2-1.1s1-1.1,1.3-1.9s0.4-1.7,0.4-2.7v-5.1h8.2c0.8,0,1.4,0.2,1.9,0.6c0.4,0.4,0.7,1.1,0.7,1.9s-0.2,1.5-0.6,2
		s-1.1,0.7-1.9,0.7H186v2h5l3.4,3.7h3.3l-4-4C194.5,219.1,195.2,218.5,195.7,217.8z"/>
	<polygon class="st0" points="96.2,193.2 96.4,193.2 123.9,193.2 163.6,193.2 163.6,165.5 123.9,165.5 123.9,76.2 123.9,76.2 
		123.9,62.3 164.2,62.3 164.2,34.5 35.9,34.5 35.9,62.3 96.2,62.3 	"/>
	<path class="st0" d="M259.8,80.7c-3.9-9.5-9.2-17.7-16-24.6c-6.8-6.8-15-12.1-24.4-15.9c-6.2-2.5-12.8-4.1-19.8-5v28.2
		c3,0.6,5.8,1.5,8.5,2.7c6,2.5,11.3,6.1,15.7,10.6c4.4,4.5,7.9,9.9,10.4,16.3c2.5,6.3,3.7,13.2,3.7,20.6s-1.2,14.3-3.7,20.7
		c-2.5,6.4-5.9,11.9-10.4,16.5c-4.4,4.6-9.7,8.2-15.7,10.8c-2.7,1.2-5.6,2.1-8.5,2.7v28.2c7-0.9,13.6-2.7,19.8-5.5
		c9.5-4.1,17.6-9.8,24.4-17c6.8-7.2,12.2-15.8,16-25.6c3.9-9.9,5.8-20.6,5.8-32.1C265.6,100.7,263.7,90.2,259.8,80.7z"/>
	<rect x="139.9" y="76.2" class="st0" width="13.3" height="75"/>
	<rect x="167.9" y="76.2" class="st0" width="13.3" height="75"/>
	<rect x="195.9" y="76.2" class="st0" width="13.3" height="75"/>
	<rect x="203.4" y="215.7" class="st0" width="5.4" height="2.1"/>
	<path class="st0" d="M98.6,233.1c-0.5-0.4-1.1-0.3-1.7-0.3h-1.5v6.4h1.2v-2.4h0.2c0.6,0,1.4,0,1.9-0.4c0.5-0.4,0.8-1,0.8-1.6
		C99.5,234.1,99.2,233.5,98.6,233.1z M97.7,235.5c-0.3,0.1-0.6,0.1-0.9,0.1h-0.2v-1.7h0.2c0.3,0,0.6,0,0.9,0.1
		c0.4,0.1,0.6,0.4,0.6,0.8C98.3,235.1,98.1,235.4,97.7,235.5z"/>
	<path class="st0" d="M101.2,234.8L101.2,234.8l0-0.4h-1v4.8h1.1v-2.6c0-0.4,0-0.8,0.3-1c0.2-0.1,0.5-0.2,0.7-0.2v-1.1h-0.1
		C101.8,234.2,101.5,234.4,101.2,234.8z"/>
	<path class="st0" d="M105.2,234.2c-1.4,0-2.5,1.2-2.5,2.6c0,1.4,1.1,2.5,2.5,2.5c1,0,2-0.7,2.3-1.5h-1.3c-0.2,0.3-0.6,0.4-1.1,0.4
		c-0.6,0-1.1-0.4-1.3-0.9h3.7c0-0.2,0.1-0.4,0.1-0.5C107.7,235.4,106.6,234.2,105.2,234.2z M103.9,236.3c0.2-0.6,0.8-0.9,1.3-0.9
		c0.6,0,1.1,0.3,1.3,0.9H103.9z"/>
	<path class="st0" d="M110.8,235.3c0.5,0,0.9,0.2,1.1,0.6h1.3c-0.3-1-1.3-1.8-2.4-1.8c-1.4,0-2.5,1.1-2.5,2.5c0,0.7,0.3,1.4,0.8,1.9
		c0.5,0.4,1.1,0.7,1.8,0.7c1.1,0,2.1-0.7,2.4-1.7h-1.3c-0.2,0.4-0.6,0.6-1,0.6c-0.8,0-1.4-0.6-1.4-1.4
		C109.4,236,109.9,235.3,110.8,235.3z"/>
	<rect x="114" y="234.4" class="st0" width="1.1" height="4.8"/>
	<rect x="114" y="232.8" class="st0" width="1.1" height="1"/>
	<path class="st0" d="M117.7,236.2c-0.2-0.1-0.7-0.1-0.6-0.5c0-0.3,0.2-0.4,0.4-0.4c0.2,0,0.4,0.1,0.4,0.3h1.1
		c0-0.8-0.8-1.5-1.5-1.5c-0.8,0-1.6,0.6-1.6,1.5c0,0.8,0.6,1.2,1.3,1.4c0.3,0.1,0.8,0.2,0.8,0.6c0,0.3-0.3,0.5-0.5,0.5
		c-0.3,0-0.5-0.2-0.6-0.5h-1.2c0,1,0.8,1.7,1.7,1.7c0.4,0,0.9-0.2,1.2-0.5c0.3-0.3,0.5-0.7,0.5-1.1
		C119.2,236.7,118.5,236.4,117.7,236.2z"/>
	<rect x="119.8" y="234.4" class="st0" width="1.1" height="4.8"/>
	<rect x="119.8" y="232.8" class="st0" width="1.1" height="1"/>
	<path class="st0" d="M124.3,234.2c-1.4,0-2.6,1.1-2.6,2.6c0,1.4,1.1,2.5,2.5,2.5c1.4,0,2.6-1.1,2.6-2.5
		C126.8,235.4,125.7,234.2,124.3,234.2z M124.2,238.2c-0.8,0-1.4-0.6-1.4-1.4c0-0.7,0.6-1.4,1.4-1.4c0.8,0,1.4,0.6,1.4,1.4
		C125.6,237.6,125,238.2,124.2,238.2z"/>
	<path class="st0" d="M131.2,234.8c-0.3-0.4-0.9-0.6-1.4-0.6c-0.5,0-1,0.2-1.3,0.6h0v-0.4h-1.1v4.8h1.1V237c0-0.4,0-0.9,0.2-1.2
		c0.2-0.3,0.5-0.4,0.8-0.4c0.3,0,0.6,0.1,0.8,0.4c0.2,0.3,0.2,0.8,0.2,1.2v2.2h1.2v-2.5c0-0.6,0-1.2-0.4-1.7
		C131.3,234.9,131.2,234.9,131.2,234.8z"/>
	<rect x="132.8" y="238" class="st0" width="1.1" height="1.1"/>
	<rect x="137.8" y="232.8" class="st0" width="1.2" height="6.4"/>
	<path class="st0" d="M143.8,234.8c-0.3-0.4-0.9-0.6-1.4-0.6s-1,0.2-1.3,0.6h0v-0.4h-1.1v4.8h1.1V237c0-0.4,0-0.9,0.2-1.2
		c0.2-0.3,0.5-0.4,0.8-0.4c0.3,0,0.6,0.1,0.8,0.4c0.2,0.3,0.2,0.8,0.2,1.2v2.2h1.2v-2.5c0-0.6,0-1.2-0.4-1.7
		C143.9,234.9,143.9,234.9,143.8,234.8z"/>
	<path class="st0" d="M149,234.8c-0.3-0.4-0.9-0.6-1.4-0.6c-0.5,0-1,0.2-1.3,0.6h0v-0.4h-1.1v4.8h1.1V237c0-0.4,0-0.9,0.2-1.2
		c0.2-0.3,0.5-0.4,0.8-0.4c0.3,0,0.6,0.1,0.8,0.4c0.2,0.3,0.2,0.8,0.2,1.2v2.2h1.2v-2.5c0-0.6,0-1.2-0.4-1.7
		C149.1,234.9,149.1,234.9,149,234.8z"/>
	<path class="st0" d="M152.9,234.2c-1.4,0-2.6,1.1-2.6,2.6c0,1.4,1.1,2.5,2.5,2.5c1.4,0,2.6-1.1,2.6-2.5
		C155.4,235.4,154.3,234.2,152.9,234.2z M152.8,238.2c-0.8,0-1.4-0.6-1.4-1.4c0-0.7,0.6-1.4,1.4-1.4c0.8,0,1.4,0.6,1.4,1.4
		C154.2,237.6,153.6,238.2,152.8,238.2z"/>
	<polygon class="st0" points="157.9,237.5 156.8,234.4 155.6,234.4 157.5,239.2 158.4,239.2 160.3,234.4 159,234.4 	"/>
	<path class="st0" d="M164.6,235.1c-0.4-0.5-0.9-0.8-1.6-0.8c-0.7,0-1.3,0.3-1.8,0.8c-0.4,0.5-0.6,1.1-0.6,1.7
		c0,0.7,0.2,1.3,0.6,1.7c0.4,0.5,1,0.8,1.8,0.8c0.6,0,1.3-0.3,1.6-0.8h0v0.6h1.1v-4.8h-1.1V235.1z M163.2,238.2
		c-0.8,0-1.4-0.6-1.4-1.4c0-0.8,0.6-1.5,1.4-1.5c0.8,0,1.4,0.6,1.4,1.4C164.6,237.6,164,238.2,163.2,238.2z"/>
	<polygon class="st0" points="167.9,232.8 166.7,232.8 166.7,234.4 166.2,234.4 166.2,235.4 166.7,235.4 166.7,239.2 167.9,239.2 
		167.9,235.4 168.6,235.4 168.6,234.4 167.9,234.4 	"/>
	<rect x="169.2" y="232.8" class="st0" width="1.1" height="1"/>
	<rect x="169.2" y="234.4" class="st0" width="1.1" height="4.8"/>
	<path class="st0" d="M173.6,234.2c-1.4,0-2.6,1.1-2.6,2.6c0,1.4,1.1,2.5,2.5,2.5c1.4,0,2.6-1.1,2.6-2.5
		C176.1,235.4,175,234.2,173.6,234.2z M173.5,238.2c-0.8,0-1.4-0.6-1.4-1.4c0-0.7,0.6-1.4,1.4-1.4c0.8,0,1.4,0.6,1.4,1.4
		C174.9,237.6,174.4,238.2,173.5,238.2z"/>
	<path class="st0" d="M180.5,234.8c-0.3-0.4-0.9-0.6-1.4-0.6s-1,0.2-1.3,0.6h0v-0.4h-1.1v4.8h1.1V237c0-0.4,0-0.9,0.2-1.2
		c0.2-0.3,0.5-0.4,0.8-0.4c0.3,0,0.6,0.1,0.8,0.4c0.2,0.3,0.2,0.8,0.2,1.2v2.2h1.2v-2.5c0-0.6,0-1.2-0.4-1.7
		C180.6,234.9,180.5,234.9,180.5,234.8z"/>
	<rect x="182.1" y="238" class="st0" width="1.1" height="1.1"/>
	<path class="st0" d="M190,235.5c0.4-0.3,0.6-0.7,0.6-1.1c0-0.9-0.8-1.7-1.8-1.7c-0.9,0-1.7,0.8-1.7,1.7h1.1c0-0.3,0.2-0.5,0.5-0.5
		c0.3,0,0.6,0.2,0.6,0.6c0,0.6-0.4,0.7-0.9,0.7h-0.1v1.1h0.1c0.3,0,0.6,0,0.9,0.2c0.3,0.2,0.4,0.5,0.4,0.9c0,0.5-0.4,1-1,1
		c-0.5,0-1-0.4-1-0.9h-1.2c0,1.1,1,2,2.1,2c1.2,0,2.2-0.9,2.2-2.1C191,236.5,190.7,235.7,190,235.5z"/>
	<path class="st0" d="M193.3,232.8H192v6.4h1.4c1,0,1.9-0.1,2.7-0.7c0.7-0.6,1.1-1.5,1.1-2.4c0-0.9-0.4-1.9-1.1-2.5
		C195.2,232.9,194.3,232.8,193.3,232.8z M195.1,237.6c-0.6,0.4-1.2,0.5-1.8,0.4l-0.1,0v-4.1h0.1c0.6,0,1.3,0,1.8,0.4
		c0.6,0.4,0.9,1,0.9,1.7C195.9,236.6,195.6,237.2,195.1,237.6z"/>
	<path class="st0" d="M205.8,234.2c-0.5,0-1.1,0.2-1.4,0.6c0,0-0.1,0.1-0.1,0.2c0-0.1-0.1-0.1-0.1-0.2c-0.3-0.4-0.8-0.6-1.3-0.6
		c-0.4,0-1,0.2-1.2,0.6h0v-0.4h-1.1v4.8h1.1v-2.3c0-0.7,0-1.5,0.9-1.5c0.3,0,0.6,0.1,0.8,0.4c0.2,0.3,0.2,0.6,0.2,0.9v2.5h1.2v-2.3
		c0-0.3,0-0.8,0.2-1.1c0.2-0.3,0.5-0.4,0.8-0.4c0.3,0,0.6,0.1,0.7,0.4c0.2,0.2,0.2,0.6,0.2,0.9v2.5h1.1v-2.7c0-0.6-0.1-1.2-0.5-1.7
		C206.9,234.4,206.3,234.2,205.8,234.2z"/>
	<path class="st0" d="M211.1,234.2c-1.4,0-2.6,1.1-2.6,2.6c0,1.4,1.1,2.5,2.5,2.5c1.4,0,2.6-1.1,2.6-2.5
		C213.6,235.4,212.5,234.2,211.1,234.2z M211,238.2c-0.8,0-1.4-0.6-1.4-1.4c0-0.7,0.6-1.4,1.4-1.4c0.8,0,1.4,0.6,1.4,1.4
		C212.4,237.6,211.8,238.2,211,238.2z"/>
	<path class="st0" d="M217.9,234.9c-0.4-0.4-0.9-0.7-1.5-0.7c-1.6,0-2.4,1.3-2.4,2.6c0,1.3,1,2.5,2.4,2.5c0.6,0,1.2-0.3,1.6-0.8h0
		v0.6h1.1v-6.4h-1.2V234.9z M216.6,238.2c-0.8,0-1.4-0.7-1.4-1.5c0-0.7,0.6-1.4,1.4-1.4c0.8,0,1.4,0.6,1.4,1.4
		C218,237.5,217.3,238.2,216.6,238.2z"/>
	<path class="st0" d="M222.3,234.2c-1.4,0-2.5,1.2-2.5,2.6c0,1.4,1.1,2.5,2.5,2.5c1,0,2-0.7,2.3-1.5h-1.3c-0.2,0.3-0.6,0.4-1.1,0.4
		c-0.6,0-1.1-0.4-1.3-0.9h3.7c0-0.2,0.1-0.4,0.1-0.5C224.7,235.4,223.6,234.2,222.3,234.2z M220.9,236.3c0.2-0.6,0.8-0.9,1.3-0.9
		c0.6,0,1.1,0.3,1.3,0.9H220.9z"/>
	<rect x="225.5" y="232.8" class="st0" width="1.1" height="6.4"/>
	<rect x="227.5" y="234.4" class="st0" width="1.1" height="4.8"/>
	<rect x="227.5" y="232.8" class="st0" width="1.1" height="1"/>
	<path class="st0" d="M233.3,234.8c-0.3-0.4-0.9-0.6-1.4-0.6s-1,0.2-1.3,0.6h0v-0.4h-1.1v4.8h1.1V237c0-0.4,0-0.9,0.2-1.2
		c0.2-0.3,0.5-0.4,0.8-0.4c0.3,0,0.6,0.1,0.8,0.4c0.2,0.3,0.2,0.8,0.2,1.2v2.2h1.2v-2.5c0-0.6,0-1.2-0.4-1.7
		C233.4,234.9,233.4,234.9,233.3,234.8z"/>
	<path class="st0" d="M238.5,235L238.5,235c-0.3-0.6-0.9-0.8-1.5-0.8c-0.7,0-1.4,0.3-1.8,0.8c-0.4,0.4-0.6,1-0.6,1.7
		c0,0.7,0.2,1.4,0.7,1.9c0.4,0.4,1.1,0.8,1.7,0.8c0.7,0,1.1-0.3,1.5-0.8l0,0c-0.1,0.4-0.1,0.8-0.5,1.1c-0.3,0.3-0.7,0.4-1.1,0.4
		c-0.4,0-0.8-0.2-1.1-0.5h-1.3c0.4,1,1.4,1.6,2.4,1.6c0.7,0,1.4-0.3,1.9-0.8c0.5-0.5,0.7-1.1,0.7-1.8v-4.1h-1.1V235z M237.2,238.2
		c-0.8,0-1.4-0.6-1.4-1.4c0-0.4,0.1-0.7,0.4-1c0.2-0.3,0.6-0.4,1-0.4c0.8,0,1.4,0.6,1.4,1.4C238.5,237.5,237.9,238.2,237.2,238.2z"
		/>
</g>
</svg>
